<?xml version="1.0" encoding="UTF-8"?>
<svg xmlns="http://www.w3.org/2000/svg" xmlns:serif="http://www.serif.com/" version="1.1" viewBox="0 0 456 456">
  <defs>
    <style>
      .cls-1 {
        fill: #fff;
      }
    </style>
  </defs>
  <!-- Generator: Adobe Illustrator 28.6.0, SVG Export Plug-In . SVG Version: 1.2.0 Build 709)  -->
  <g>
    <g id="Layer_1">
      <g>
        <path class="cls-1" d="M105.5,285.9c-.9,0-1.7-.3-2.4-1-.6-.7-1-1.5-1-2.4v-44.3c0-1,.3-1.8,1-2.5.6-.6,1.4-1,2.4-1h12.8c3.2,0,6.1.7,8.5,2.2,2.5,1.4,4.4,3.4,5.8,6,1.4,2.6,2.1,5.5,2.1,8.8s-.7,6-2.1,8.5c-1.4,2.5-3.3,4.4-5.8,5.8-2.5,1.4-5.3,2.1-8.5,2.1h-9.5v14.3c0,1-.3,1.8-.9,2.4-.6.7-1.4,1-2.4,1ZM108.9,261.8h9.5c2,0,3.7-.4,5.2-1.3,1.5-.9,2.7-2.1,3.5-3.6.9-1.5,1.3-3.3,1.3-5.2s-.4-3.9-1.3-5.5c-.9-1.6-2-2.8-3.5-3.8-1.5-.9-3.2-1.4-5.2-1.4h-9.5v20.8Z"/>
        <path class="cls-1" d="M144.8,244.2c-1.2,0-2.1-.4-3-1.3-.8-.9-1.3-1.9-1.3-3s.4-2.2,1.3-3c.8-.9,1.8-1.3,3-1.3s2.1.4,3,1.3c.8.9,1.3,1.9,1.3,3s-.4,2.2-1.3,3c-.8.9-1.8,1.3-3,1.3ZM144.8,285.9c-.9,0-1.7-.3-2.3-.9-.6-.6-.9-1.4-.9-2.4v-29.1c0-1,.3-1.8.9-2.4.6-.6,1.4-.9,2.3-.9s1.8.3,2.4.9c.6.6.9,1.4.9,2.4v29.1c0,1-.3,1.8-.9,2.4-.6.6-1.4.9-2.4.9Z"/>
        <path class="cls-1" d="M192.5,266.5v16.1c0,1-.3,1.8-.9,2.4-.6.6-1.4,1-2.3,1s-1.7-.3-2.3-1c-.6-.6-.9-1.4-.9-2.4v-16.1c0-2.5-.5-4.5-1.3-6.1-.9-1.6-2.1-2.7-3.6-3.5-1.5-.8-3.3-1.1-5.2-1.1s-3.4.4-4.9,1.1c-1.4.8-2.6,1.7-3.5,3-.9,1.2-1.3,2.7-1.3,4.3v18.5c0,1-.3,1.8-.9,2.4-.6.6-1.4,1-2.4,1s-1.7-.3-2.3-1c-.6-.6-.9-1.4-.9-2.4v-29.2c0-1,.3-1.8.9-2.4.6-.6,1.4-.9,2.3-.9s1.8.3,2.4.9c.6.6.9,1.4.9,2.4v.7c.9-1,2-1.8,3.3-2.5,2.3-1.3,4.8-1.9,7.6-1.9s5.6.7,7.9,1.9c2.3,1.3,4.2,3.2,5.5,5.7,1.3,2.5,2,5.5,2,9.2Z"/>
        <path class="cls-1" d="M206.7,285.9c-.9,0-1.7-.3-2.4-1-.6-.7-1-1.5-1-2.4v-44.3c0-1,.3-1.8,1-2.5.6-.6,1.4-1,2.4-1h12.8c3.2,0,6.1.7,8.5,2.2,2.5,1.4,4.4,3.4,5.8,6,1.4,2.6,2.1,5.5,2.1,8.8s-.7,6-2.1,8.5c-1.4,2.5-3.3,4.4-5.8,5.8-2.5,1.4-5.3,2.1-8.5,2.1h-9.5v14.3c0,1-.3,1.8-.9,2.4-.6.7-1.4,1-2.4,1ZM210.1,261.8h9.5c2,0,3.7-.4,5.2-1.3,1.5-.9,2.7-2.1,3.5-3.6.9-1.5,1.3-3.3,1.3-5.2s-.4-3.9-1.3-5.5c-.9-1.6-2-2.8-3.5-3.8-1.5-.9-3.2-1.4-5.2-1.4h-9.5v20.8Z"/>
        <path class="cls-1" d="M258,286.1c-3.5,0-6.5-.8-9.2-2.3-2.7-1.5-4.7-3.7-6.3-6.4-1.5-2.7-2.3-5.9-2.3-9.4s.8-6.7,2.3-9.5c1.5-2.7,3.6-4.9,6.3-6.4,2.7-1.5,5.7-2.3,9.2-2.3s6.5.8,9.1,2.3,4.7,3.7,6.3,6.4c1.5,2.7,2.3,5.9,2.3,9.5s-.7,6.7-2.2,9.4c-1.5,2.7-3.6,4.9-6.2,6.4-2.7,1.5-5.7,2.3-9.2,2.3ZM258,280.2c2.2,0,4.2-.5,5.9-1.6,1.7-1,3-2.5,4-4.3,1-1.8,1.4-4,1.4-6.4s-.5-4.5-1.4-6.4c-1-1.9-2.3-3.3-4-4.4-1.7-1-3.7-1.6-5.9-1.6s-4.2.5-5.9,1.6c-1.7,1-3.1,2.5-4,4.4-1,1.9-1.5,4-1.5,6.4s.5,4.5,1.5,6.4c1,1.8,2.3,3.3,4,4.3,1.7,1,3.7,1.6,5.9,1.6Z"/>
        <path class="cls-1" d="M288.7,244.2c-1.2,0-2.1-.4-3-1.3-.8-.9-1.3-1.9-1.3-3s.4-2.2,1.3-3c.8-.9,1.8-1.3,3-1.3s2.2.4,3,1.3c.8.9,1.3,1.9,1.3,3s-.4,2.2-1.3,3c-.8.9-1.8,1.3-3,1.3ZM288.7,285.9c-.9,0-1.7-.3-2.3-.9-.6-.6-.9-1.4-.9-2.4v-29.1c0-1,.3-1.8.9-2.4.6-.6,1.4-.9,2.3-.9s1.8.3,2.4.9c.6.6.9,1.4.9,2.4v29.1c0,1-.3,1.8-.9,2.4-.6.6-1.4.9-2.4.9Z"/>
        <path class="cls-1" d="M336.4,266.5v16.1c0,1-.3,1.8-.9,2.4-.6.6-1.4,1-2.3,1s-1.7-.3-2.3-1c-.6-.6-.9-1.4-.9-2.4v-16.1c0-2.5-.5-4.5-1.3-6.1-.9-1.6-2.1-2.7-3.6-3.5-1.5-.8-3.3-1.1-5.2-1.1s-3.4.4-4.9,1.1c-1.5.8-2.6,1.7-3.5,3-.9,1.2-1.3,2.7-1.3,4.3v18.5c0,1-.3,1.8-.9,2.4-.6.6-1.4,1-2.4,1s-1.7-.3-2.3-1c-.6-.6-.9-1.4-.9-2.4v-29.2c0-1,.3-1.8.9-2.4.6-.6,1.4-.9,2.3-.9s1.8.3,2.4.9c.6.6.9,1.4.9,2.4v.7c.9-1,2-1.8,3.3-2.5,2.3-1.3,4.8-1.9,7.6-1.9s5.6.7,7.9,1.9c2.3,1.3,4.2,3.2,5.5,5.7,1.3,2.5,2,5.5,2,9.2Z"/>
        <path class="cls-1" d="M364.3,282.6c0,1-.4,1.7-1.1,2.4-.7.6-1.6.9-2.7.9h-1.2c-2.1,0-4.1-.6-5.8-1.7-1.7-1.1-3.1-2.6-4-4.5-1-1.9-1.5-4.1-1.5-6.5v-16.2h-3c-.9,0-1.6-.3-2.2-.8-.6-.5-.8-1.2-.8-2s.3-1.6.8-2.1c.6-.5,1.3-.8,2.2-.8h3v-9.4c0-1,.3-1.7.9-2.3.6-.6,1.4-.9,2.3-.9s1.7.3,2.3.9c.6.6.9,1.4.9,2.3v9.4h5.5c.9,0,1.6.3,2.2.8.5.5.8,1.2.8,2.1s-.3,1.4-.8,2c-.6.5-1.3.8-2.2.8h-5.5v16.2c0,1.7.5,3.2,1.4,4.4.9,1.2,2.1,1.8,3.5,1.8h2.2c.8,0,1.4.3,2,.9.5.6.8,1.4.8,2.4Z"/>
      </g>
      <path class="cls-1" d="M279.9,179.2c-12.1-12.1-31.7-12.1-43.8,0-5.6,5.7-8.4,13.3-8,20.9.5,10.6,8.4,18.6,14.6,26.5,4.9,6.3,9.8,12.7,14.7,19s.7.9.7.9c3.2-4.2,6.4-8.4,9.7-12.5,7.6-9.9,19.6-20.7,20.3-33.9.4-7.6-2.4-15.2-8-20.9ZM277.9,201.8l-15.9.9,10.6,11.9c.3.3.3.8,0,1.1-.3.3-.8.3-1.1,0l-11.9-10.6-.9,15.9c0,.4-.4.7-.8.7s-.8-.3-.8-.7l-.9-15.9-11.9,10.6c-.3.3-.8.3-1.1,0s-.3-.8,0-1.1l10.6-11.9-15.9-.9c-.4,0-.7-.4-.7-.8s.3-.8.7-.8l15.9-.9-10.6-11.9c-.3-.3-.3-.8,0-1.1.3-.3.8-.3,1.1,0l11.9,10.6.9-15.9c0-.4.4-.7.8-.7s.8.3.8.7l.9,15.9,11.9-10.6c.3-.3.8-.3,1.1,0,.3.3.3.8,0,1.1l-10.6,11.9,15.9.9c.4,0,.7.4.7.8s-.3.8-.7.8Z"/>
    </g>
  </g>
</svg>