<?xml version="1.0" encoding="UTF-8"?>
<svg xmlns="http://www.w3.org/2000/svg" xmlns:serif="http://www.serif.com/" version="1.1" viewBox="0 0 456 456">
  <defs>
    <style>
      .cls-1 {
        fill: #fff;
      }
    </style>
  </defs>
  <!-- Generator: Adobe Illustrator 28.6.0, SVG Export Plug-In . SVG Version: 1.2.0 Build 709)  -->
  <g>
    <g id="Layer_1">
      <g>
        <path class="cls-1" d="M113.4,241.8c-1.5,0-2.8-.5-3.8-1.6-1-1-1.5-2.3-1.5-3.9v-70.8c0-1.6.5-2.9,1.5-3.9,1-1,2.3-1.5,3.8-1.5h20.5c5.1,0,9.7,1.2,13.6,3.5,4,2.3,7.1,5.5,9.3,9.6,2.2,4.1,3.3,8.8,3.3,14.1s-1.1,9.6-3.3,13.6c-2.2,4-5.3,7.1-9.3,9.3-4,2.2-8.5,3.3-13.6,3.3h-15.2v22.9c0,1.5-.5,2.8-1.5,3.9-1,1-2.3,1.6-3.8,1.6ZM118.7,203.5h15.2c3.1,0,5.9-.7,8.3-2.1,2.4-1.4,4.3-3.3,5.6-5.8,1.4-2.4,2-5.2,2-8.4s-.7-6.3-2-8.8c-1.4-2.5-3.2-4.5-5.6-6-2.4-1.5-5.2-2.2-8.3-2.2h-15.2v33.2Z"/>
        <path class="cls-1" d="M176.1,175.4c-1.8,0-3.4-.7-4.8-2-1.3-1.4-2-3-2-4.9s.7-3.5,2-4.9c1.3-1.4,2.9-2,4.8-2s3.4.7,4.8,2c1.3,1.4,2,3,2,4.9s-.7,3.5-2,4.9c-1.3,1.4-2.9,2-4.8,2ZM176.1,241.8c-1.5,0-2.8-.5-3.7-1.5-1-1-1.5-2.3-1.5-3.8v-46.5c0-1.6.5-2.9,1.5-3.9,1-1,2.2-1.5,3.7-1.5s2.8.5,3.8,1.5c1,1,1.4,2.3,1.4,3.9v46.5c0,1.5-.5,2.8-1.4,3.8-1,1-2.2,1.5-3.8,1.5Z"/>
        <path class="cls-1" d="M252.3,210.9v25.7c0,1.5-.5,2.8-1.5,3.8s-2.2,1.5-3.7,1.5-2.8-.5-3.7-1.5c-1-1-1.5-2.3-1.5-3.8v-25.7c0-4-.7-7.2-2.1-9.7-1.4-2.5-3.4-4.4-5.8-5.6-2.4-1.2-5.2-1.8-8.3-1.8s-5.5.6-7.8,1.8c-2.3,1.2-4.2,2.8-5.5,4.8-1.4,2-2,4.3-2,6.9v29.5c0,1.5-.5,2.8-1.4,3.8-1,1-2.2,1.5-3.8,1.5s-2.8-.5-3.7-1.5-1.5-2.3-1.5-3.8v-46.6c0-1.6.5-2.9,1.5-3.9,1-1,2.2-1.5,3.7-1.5s2.8.5,3.8,1.5c1,1,1.4,2.3,1.4,3.9v1.1c1.5-1.5,3.2-2.8,5.2-4,3.6-2,7.7-3,12.2-3s8.9,1,12.7,3.1c3.7,2.1,6.7,5.1,8.8,9.1,2.1,4,3.2,8.8,3.2,14.6Z"/>
      </g>
      <path class="cls-1" d="M345.8,139.5c-19.8-19.8-51.9-19.8-71.7,0-9.2,9.3-13.8,21.8-13.1,34.2.9,17.4,13.8,30.4,23.8,43.4,8,10.4,16,20.8,24,31.2,0,0,1.2,1.4,1.2,1.5,5.3-6.8,10.6-13.7,15.8-20.5,12.5-16.2,32.1-33.9,33.2-55.6.6-12.4-3.9-24.9-13.1-34.2ZM342.5,176.4l-26,1.4,17.4,19.4c.4.5.4,1.3,0,1.7-.5.5-1.2.5-1.7,0l-19.4-17.4-1.4,26c0,.7-.6,1.2-1.3,1.2s-1.2-.5-1.3-1.2l-1.4-26-19.4,17.4c-.5.4-1.3.4-1.7,0s-.5-1.2,0-1.7l17.4-19.4-26-1.4c-.7,0-1.2-.6-1.2-1.3s.5-1.2,1.2-1.3l26-1.4-17.4-19.4c-.4-.5-.4-1.3,0-1.7.5-.5,1.2-.5,1.7,0l19.4,17.4,1.4-26c0-.7.6-1.2,1.3-1.2s1.2.5,1.3,1.2l1.4,26,19.4-17.4c.5-.4,1.3-.4,1.7,0,.5.5.5,1.2,0,1.7l-17.4,19.4,26,1.4c.7,0,1.2.6,1.2,1.3s-.5,1.2-1.2,1.3Z"/>
      <g>
        <path class="cls-1" d="M112.5,331.4c-1.5,0-2.8-.5-3.8-1.6-1-1-1.5-2.3-1.5-3.9v-70.8c0-1.6.5-2.9,1.5-3.9,1-1,2.3-1.5,3.8-1.5h20.5c5.1,0,9.7,1.2,13.6,3.5,4,2.3,7.1,5.5,9.3,9.6,2.2,4.1,3.3,8.8,3.3,14.1s-1.1,9.6-3.3,13.6c-2.2,4-5.3,7.1-9.3,9.3-4,2.2-8.5,3.3-13.6,3.3h-15.2v22.9c0,1.5-.5,2.8-1.5,3.9-1,1-2.3,1.6-3.8,1.6ZM117.9,293h15.2c3.1,0,5.9-.7,8.3-2.1,2.4-1.4,4.3-3.3,5.6-5.8,1.4-2.4,2-5.2,2-8.4s-.7-6.3-2-8.8c-1.4-2.5-3.2-4.5-5.6-6-2.4-1.5-5.2-2.2-8.3-2.2h-15.2v33.2Z"/>
        <path class="cls-1" d="M194.4,331.8c-5.5,0-10.4-1.2-14.7-3.7-4.2-2.5-7.6-5.9-10-10.2-2.4-4.4-3.6-9.4-3.6-15s1.2-10.8,3.6-15.1c2.4-4.4,5.8-7.8,10-10.2,4.2-2.5,9.1-3.7,14.7-3.7s10.3,1.2,14.5,3.7c4.2,2.5,7.6,5.9,10,10.2,2.4,4.4,3.6,9.4,3.6,15.1s-1.2,10.6-3.6,15c-2.4,4.4-5.7,7.8-9.9,10.2-4.2,2.5-9.1,3.7-14.7,3.7ZM194.4,322.4c3.6,0,6.7-.8,9.4-2.5,2.7-1.7,4.9-4,6.4-6.9,1.5-2.9,2.3-6.3,2.3-10.1s-.8-7.2-2.3-10.2c-1.5-3-3.7-5.3-6.4-7-2.7-1.7-5.9-2.5-9.4-2.5s-6.7.8-9.4,2.5c-2.7,1.7-4.9,4-6.5,7-1.6,3-2.4,6.4-2.4,10.2s.8,7.2,2.4,10.1c1.6,2.9,3.7,5.2,6.5,6.9,2.7,1.7,5.9,2.5,9.4,2.5Z"/>
        <path class="cls-1" d="M243.4,264.9c-1.8,0-3.4-.7-4.8-2s-2-3-2-4.9.7-3.5,2-4.9c1.3-1.4,2.9-2,4.8-2s3.4.7,4.8,2c1.3,1.4,2,3,2,4.9s-.7,3.5-2,4.9-2.9,2-4.8,2ZM243.4,331.4c-1.5,0-2.8-.5-3.7-1.5-1-1-1.5-2.3-1.5-3.8v-46.5c0-1.6.5-2.9,1.5-3.9,1-1,2.2-1.5,3.7-1.5s2.8.5,3.8,1.5c1,1,1.4,2.3,1.4,3.9v46.5c0,1.5-.5,2.8-1.4,3.8-1,1-2.2,1.5-3.8,1.5Z"/>
        <path class="cls-1" d="M319.6,300.5v25.7c0,1.5-.5,2.8-1.5,3.8s-2.2,1.5-3.7,1.5-2.8-.5-3.7-1.5-1.5-2.3-1.5-3.8v-25.7c0-4-.7-7.2-2.2-9.7-1.4-2.5-3.4-4.4-5.8-5.6-2.4-1.2-5.2-1.8-8.3-1.8s-5.5.6-7.8,1.8c-2.3,1.2-4.2,2.8-5.5,4.8-1.4,2-2,4.3-2,6.8v29.5c0,1.5-.5,2.8-1.4,3.8s-2.2,1.5-3.8,1.5-2.8-.5-3.7-1.5c-1-1-1.5-2.3-1.5-3.8v-46.6c0-1.6.5-2.9,1.5-3.9,1-1,2.2-1.5,3.7-1.5s2.8.5,3.8,1.5c1,1,1.4,2.3,1.4,3.9v1.1c1.5-1.5,3.2-2.8,5.2-4,3.6-2,7.7-3,12.2-3s8.9,1,12.7,3.1c3.7,2,6.7,5.1,8.8,9,2.2,4,3.2,8.8,3.2,14.6Z"/>
        <path class="cls-1" d="M364.2,326.2c0,1.5-.6,2.8-1.7,3.8-1.1,1-2.6,1.5-4.4,1.5h-1.8c-3.4,0-6.5-.9-9.2-2.7-2.7-1.8-4.9-4.2-6.5-7.3-1.6-3.1-2.4-6.5-2.4-10.3v-25.8h-4.7c-1.4,0-2.6-.4-3.5-1.3-.9-.8-1.3-1.9-1.3-3.1s.4-2.5,1.3-3.3,2-1.3,3.5-1.3h4.7v-15c0-1.5.5-2.8,1.4-3.8,1-1,2.2-1.5,3.7-1.5s2.7.5,3.7,1.5c1,1,1.4,2.2,1.4,3.8v15h8.7c1.4,0,2.6.4,3.5,1.3s1.3,2,1.3,3.3-.5,2.3-1.3,3.1c-.9.8-2,1.3-3.5,1.3h-8.7v25.8c0,2.8.8,5.1,2.2,7,1.5,1.9,3.3,2.8,5.5,2.8h3.5c1.2,0,2.3.5,3.1,1.5.8,1,1.3,2.2,1.3,3.8Z"/>
      </g>
    </g>
  </g>
</svg>